<?xml version="1.0" encoding="UTF-8"?>
<!DOCTYPE svg PUBLIC "-//W3C//DTD SVG 1.1//EN" "http://www.w3.org/Graphics/SVG/1.1/DTD/svg11.dtd">
<svg version="1.1" xmlns="http://www.w3.org/2000/svg" xmlns:xlink="http://www.w3.org/1999/xlink" x="0" y="0" width="125" height="125" viewBox="0, 0, 125, 125">
  <g id="Layer_1">
    <g>
      <path d="M121.945,121.086 C119.342,121.086 116.858,120.516 114.64,119.546 C112.334,118.519 109.762,117.921 107.102,117.921 C104.409,117.921 101.839,118.519 99.562,119.546 C97.344,120.515 94.831,121.086 92.259,121.086 C89.658,121.086 87.144,120.516 84.926,119.546 C82.648,118.519 80.077,117.921 77.386,117.921 C74.726,117.921 72.153,118.519 69.876,119.546 C67.658,120.515 65.153,121.086 62.552,121.086 C59.949,121.086 57.465,120.516 55.248,119.546 C52.972,118.519 50.4,117.921 47.709,117.921 C45.047,117.921 42.476,118.519 40.169,119.546 C37.951,120.515 35.468,121.086 32.88,121.086 C30.279,121.086 27.795,120.516 25.577,119.546 C23.3,118.519 20.728,117.921 18.038,117.921 C15.377,117.921 12.805,118.519 10.498,119.546 C8.281,120.515 5.797,121.086 3.195,121.086 L3.195,110.505 C5.797,110.505 8.28,109.935 10.498,108.965 C12.805,107.966 15.376,107.366 18.038,107.366 C20.728,107.366 23.3,107.966 25.577,108.965 C27.795,109.934 30.278,110.505 32.88,110.505 C35.468,110.505 37.951,109.935 40.169,108.965 C42.476,107.966 45.047,107.366 47.709,107.366 C50.4,107.366 52.971,107.966 55.248,108.965 C57.465,109.934 59.949,110.505 62.552,110.505 C65.153,110.505 67.658,109.935 69.876,108.965 C72.153,107.966 74.725,107.366 77.386,107.366 C80.077,107.366 82.648,107.966 84.926,108.965 C87.144,109.934 89.658,110.505 92.259,110.505 C94.831,110.505 97.344,109.935 99.562,108.965 C101.839,107.966 104.409,107.366 107.102,107.366 C109.762,107.366 112.334,107.966 114.64,108.965 C116.858,109.934 119.341,110.505 121.945,110.505 L121.945,121.086 z" fill="#F8F6F3"/>
      <path d="M73.987,99.239 C75.11,99.011 76.234,98.896 77.387,98.896 C80.078,98.896 82.65,99.496 84.927,100.494 C87.145,101.463 89.659,102.035 92.26,102.035 C94.833,102.035 97.345,101.465 99.563,100.494 C101.129,99.81 102.815,99.268 104.619,99.039 C103.643,70.66 72.953,45.332 71.504,44.021 C69.997,42.709 68.607,39.828 69.582,36.434 L76.915,13.046 C78.216,9.424 77.565,4.575 75.761,3.121 C74.726,2.323 72.538,1.752 71.06,3.377 L51.229,25.082 C46.883,29.531 50.519,34.294 50.432,34.266 C43.691,31.928 35.766,33.496 30.963,35.407 L14.582,43.422 C12.956,44.078 12.246,46.075 13.104,47.416 C15.824,51.607 24.841,51.637 43.631,49.668 C73.987,46.53 74.017,93.449 73.987,99.239 z" fill="#F8F6F3"/>
    </g>
  </g>
</svg>
